<mxfile host="65bd71144e">
    <diagram id="e50d5a8b-f89a-59a1-6115-5f8c8060d788" name="Page-1">
        <mxGraphModel dx="1269" dy="1296" grid="1" gridSize="10" guides="1" tooltips="1" connect="1" arrows="1" fold="1" page="1" pageScale="1" pageWidth="1169" pageHeight="1654" math="0" shadow="0">
            <root>
                <mxCell id="0"/>
                <mxCell id="1" parent="0"/>
                <mxCell id="41fe28ffb9dbdb2c-22" value="Personnel&#10;" style="swimlane;fontStyle=1;align=center;verticalAlign=top;childLayout=stackLayout;horizontal=1;startSize=26;horizontalStack=0;resizeParent=1;resizeParentMax=0;resizeLast=0;collapsible=1;marginBottom=0;swimlaneFillColor=#ffffff;strokeColor=#d6b656;strokeWidth=1;fillColor=#fff2cc;fontSize=13;" parent="1" vertex="1">
                    <mxGeometry x="400" y="100" width="240" height="130" as="geometry"/>
                </mxCell>
                <mxCell id="41fe28ffb9dbdb2c-23" value="- personList: ArrayList&lt;Person&gt;" style="text;strokeColor=none;fillColor=none;align=left;verticalAlign=top;spacingLeft=4;spacingRight=4;overflow=hidden;rotatable=0;points=[[0,0.5],[1,0.5]];portConstraint=eastwest;fontColor=#000066;" parent="41fe28ffb9dbdb2c-22" vertex="1">
                    <mxGeometry y="26" width="240" height="24" as="geometry"/>
                </mxCell>
                <mxCell id="41fe28ffb9dbdb2c-24" value="" style="line;strokeWidth=1;fillColor=#fff2cc;align=left;verticalAlign=middle;spacingTop=-1;spacingLeft=3;spacingRight=3;rotatable=0;labelPosition=right;points=[];portConstraint=eastwest;strokeColor=#d6b656;" parent="41fe28ffb9dbdb2c-22" vertex="1">
                    <mxGeometry y="50" width="240" height="8" as="geometry"/>
                </mxCell>
                <mxCell id="41fe28ffb9dbdb2c-25" value="+ Personnel(): void&#10;+ getPersonList(): ArrayList&lt;Person&gt;&#10;+ addPersonnel(person: Person): void&#10;+ getNumPerson(): int" style="text;strokeColor=none;fillColor=none;align=left;verticalAlign=top;spacingLeft=4;spacingRight=4;overflow=hidden;rotatable=0;points=[[0,0.5],[1,0.5]];portConstraint=eastwest;fontColor=#000066;" parent="41fe28ffb9dbdb2c-22" vertex="1">
                    <mxGeometry y="58" width="240" height="72" as="geometry"/>
                </mxCell>
                <mxCell id="70" style="edgeStyle=none;html=1;entryX=0.25;entryY=0;entryDx=0;entryDy=0;strokeColor=default;endArrow=none;endFill=0;labelPosition=left;verticalLabelPosition=top;align=right;verticalAlign=bottom;startArrow=none;startFill=0;endSize=12;startSize=12;exitX=-0.008;exitY=0.109;exitDx=0;exitDy=0;exitPerimeter=0;" parent="1" source="41fe28ffb9dbdb2c-25" target="137" edge="1">
                    <mxGeometry relative="1" as="geometry">
                        <mxPoint x="520.96" y="229.9999999999999" as="sourcePoint"/>
                        <mxPoint x="300" y="280" as="targetPoint"/>
                    </mxGeometry>
                </mxCell>
                <mxCell id="74" value="1" style="edgeLabel;html=1;align=right;verticalAlign=bottom;resizable=0;points=[];labelPosition=left;verticalLabelPosition=top;" parent="70" vertex="1" connectable="0">
                    <mxGeometry x="-0.4741" y="2" relative="1" as="geometry">
                        <mxPoint x="6" y="-17" as="offset"/>
                    </mxGeometry>
                </mxCell>
                <mxCell id="75" value="1" style="edgeLabel;html=1;align=right;verticalAlign=top;resizable=0;points=[];labelPosition=left;verticalLabelPosition=bottom;" parent="70" vertex="1" connectable="0">
                    <mxGeometry x="0.2074" y="2" relative="1" as="geometry">
                        <mxPoint x="-26" y="14" as="offset"/>
                    </mxGeometry>
                </mxCell>
                <mxCell id="87" value="Person" style="swimlane;fontStyle=1;align=center;verticalAlign=top;childLayout=stackLayout;horizontal=1;startSize=26;horizontalStack=0;resizeParent=1;resizeParentMax=0;resizeLast=0;collapsible=1;marginBottom=0;swimlaneFillColor=#ffffff;strokeColor=#d6b656;strokeWidth=1;fillColor=#fff2cc;fontSize=13;" parent="1" vertex="1">
                    <mxGeometry x="820" y="100" width="300" height="170" as="geometry"/>
                </mxCell>
                <mxCell id="88" value="- last: String&#10;- first: String&#10;- middle: String" style="text;strokeColor=none;fillColor=none;align=left;verticalAlign=top;spacingLeft=4;spacingRight=4;overflow=hidden;rotatable=0;points=[[0,0.5],[1,0.5]];portConstraint=eastwest;fontColor=#000066;" parent="87" vertex="1">
                    <mxGeometry y="26" width="300" height="54" as="geometry"/>
                </mxCell>
                <mxCell id="89" value="" style="line;strokeWidth=1;fillColor=#fff2cc;align=left;verticalAlign=middle;spacingTop=-1;spacingLeft=3;spacingRight=3;rotatable=0;labelPosition=right;points=[];portConstraint=eastwest;strokeColor=#d6b656;" parent="87" vertex="1">
                    <mxGeometry y="80" width="300" height="8" as="geometry"/>
                </mxCell>
                <mxCell id="90" value="+ Person(last: String, first: String, middle: String): void&#10;+ getFirst(): String&#10;+ getMiddle(): String&#10;+ getLast(): String&#10;+ printName(order: int): void" style="text;strokeColor=none;fillColor=none;align=left;verticalAlign=top;spacingLeft=4;spacingRight=4;overflow=hidden;rotatable=0;points=[[0,0.5],[1,0.5]];portConstraint=eastwest;fontColor=#000066;" parent="87" vertex="1">
                    <mxGeometry y="88" width="300" height="82" as="geometry"/>
                </mxCell>
                <mxCell id="91" style="edgeStyle=none;html=1;strokeColor=default;endArrow=none;endFill=0;labelPosition=left;verticalLabelPosition=top;align=right;verticalAlign=bottom;startArrow=diamond;startFill=0;endSize=12;startSize=12;entryX=-0.006;entryY=0.617;entryDx=0;entryDy=0;entryPerimeter=0;" parent="1" target="88" edge="1">
                    <mxGeometry relative="1" as="geometry">
                        <mxPoint x="640" y="160" as="sourcePoint"/>
                        <mxPoint x="760" y="160" as="targetPoint"/>
                    </mxGeometry>
                </mxCell>
                <mxCell id="92" value="1" style="edgeLabel;html=1;align=right;verticalAlign=bottom;resizable=0;points=[];labelPosition=left;verticalLabelPosition=top;" parent="91" vertex="1" connectable="0">
                    <mxGeometry x="-0.4741" y="2" relative="1" as="geometry">
                        <mxPoint x="-17" y="2" as="offset"/>
                    </mxGeometry>
                </mxCell>
                <mxCell id="93" value="0..*" style="edgeLabel;html=1;align=right;verticalAlign=top;resizable=0;points=[];labelPosition=left;verticalLabelPosition=bottom;" parent="91" vertex="1" connectable="0">
                    <mxGeometry x="0.2074" y="2" relative="1" as="geometry">
                        <mxPoint x="62" y="-20" as="offset"/>
                    </mxGeometry>
                </mxCell>
                <mxCell id="94" value="has" style="edgeLabel;html=1;align=center;verticalAlign=middle;resizable=0;points=[];" parent="91" vertex="1" connectable="0">
                    <mxGeometry x="-0.0271" y="1" relative="1" as="geometry">
                        <mxPoint x="3" y="-14" as="offset"/>
                    </mxGeometry>
                </mxCell>
                <mxCell id="112" style="edgeStyle=none;html=1;entryX=0.364;entryY=1.046;entryDx=0;entryDy=0;entryPerimeter=0;startArrow=none;startFill=0;endArrow=blockThin;endFill=0;endSize=12;" parent="1" source="108" target="90" edge="1">
                    <mxGeometry relative="1" as="geometry"/>
                </mxCell>
                <mxCell id="108" value="Employee" style="swimlane;fontStyle=1;align=center;verticalAlign=top;childLayout=stackLayout;horizontal=1;startSize=26;horizontalStack=0;resizeParent=1;resizeParentMax=0;resizeLast=0;collapsible=1;marginBottom=0;swimlaneFillColor=#ffffff;strokeColor=#d6b656;strokeWidth=1;fillColor=#fff2cc;fontSize=13;" parent="1" vertex="1">
                    <mxGeometry x="780" y="322" width="150" height="120" as="geometry"/>
                </mxCell>
                <mxCell id="109" value="- empID: int&#10;- baseSalary: double" style="text;strokeColor=none;fillColor=none;align=left;verticalAlign=top;spacingLeft=4;spacingRight=4;overflow=hidden;rotatable=0;points=[[0,0.5],[1,0.5]];portConstraint=eastwest;fontColor=#000066;" parent="108" vertex="1">
                    <mxGeometry y="26" width="150" height="44" as="geometry"/>
                </mxCell>
                <mxCell id="110" value="" style="line;strokeWidth=1;fillColor=#fff2cc;align=left;verticalAlign=middle;spacingTop=-1;spacingLeft=3;spacingRight=3;rotatable=0;labelPosition=right;points=[];portConstraint=eastwest;strokeColor=#d6b656;" parent="108" vertex="1">
                    <mxGeometry y="70" width="150" height="8" as="geometry"/>
                </mxCell>
                <mxCell id="111" value="+ getID(): int&#10;+ getBaseSalary(): double" style="text;strokeColor=none;fillColor=none;align=left;verticalAlign=top;spacingLeft=4;spacingRight=4;overflow=hidden;rotatable=0;points=[[0,0.5],[1,0.5]];portConstraint=eastwest;fontColor=#000066;" parent="108" vertex="1">
                    <mxGeometry y="78" width="150" height="42" as="geometry"/>
                </mxCell>
                <mxCell id="126" style="edgeStyle=none;html=1;entryX=0.535;entryY=1.028;entryDx=0;entryDy=0;entryPerimeter=0;endArrow=blockThin;endFill=0;endSize=12;" edge="1" parent="1" source="121" target="90">
                    <mxGeometry relative="1" as="geometry"/>
                </mxCell>
                <mxCell id="121" value="Volunteer" style="swimlane;fontStyle=1;align=center;verticalAlign=top;childLayout=stackLayout;horizontal=1;startSize=26;horizontalStack=0;resizeParent=1;resizeParentMax=0;resizeLast=0;collapsible=1;marginBottom=0;swimlaneFillColor=#ffffff;strokeColor=#d6b656;strokeWidth=1;fillColor=#fff2cc;fontSize=13;" vertex="1" parent="1">
                    <mxGeometry x="980" y="322" width="150" height="60" as="geometry"/>
                </mxCell>
                <mxCell id="122" value="      " style="text;strokeColor=none;fillColor=none;align=left;verticalAlign=top;spacingLeft=4;spacingRight=4;overflow=hidden;rotatable=0;points=[[0,0.5],[1,0.5]];portConstraint=eastwest;fontColor=#000066;" vertex="1" parent="121">
                    <mxGeometry y="26" width="150" height="14" as="geometry"/>
                </mxCell>
                <mxCell id="123" value="" style="line;strokeWidth=1;fillColor=#fff2cc;align=left;verticalAlign=middle;spacingTop=-1;spacingLeft=3;spacingRight=3;rotatable=0;labelPosition=right;points=[];portConstraint=eastwest;strokeColor=#d6b656;" vertex="1" parent="121">
                    <mxGeometry y="40" width="150" height="10" as="geometry"/>
                </mxCell>
                <mxCell id="124" value="     " style="text;strokeColor=none;fillColor=none;align=left;verticalAlign=top;spacingLeft=4;spacingRight=4;overflow=hidden;rotatable=0;points=[[0,0.5],[1,0.5]];portConstraint=eastwest;fontColor=#000066;" vertex="1" parent="121">
                    <mxGeometry y="50" width="150" height="10" as="geometry"/>
                </mxCell>
                <mxCell id="135" style="edgeStyle=none;html=1;entryX=0.418;entryY=1.087;entryDx=0;entryDy=0;entryPerimeter=0;endArrow=blockThin;endFill=0;endSize=12;" edge="1" parent="1" source="127" target="111">
                    <mxGeometry relative="1" as="geometry"/>
                </mxCell>
                <mxCell id="127" value="Security" style="swimlane;fontStyle=1;align=center;verticalAlign=top;childLayout=stackLayout;horizontal=1;startSize=26;horizontalStack=0;resizeParent=1;resizeParentMax=0;resizeLast=0;collapsible=1;marginBottom=0;swimlaneFillColor=#ffffff;strokeColor=#d6b656;strokeWidth=1;fillColor=#fff2cc;fontSize=13;" vertex="1" parent="1">
                    <mxGeometry x="740" y="480" width="150" height="60" as="geometry"/>
                </mxCell>
                <mxCell id="128" value="      " style="text;strokeColor=none;fillColor=none;align=left;verticalAlign=top;spacingLeft=4;spacingRight=4;overflow=hidden;rotatable=0;points=[[0,0.5],[1,0.5]];portConstraint=eastwest;fontColor=#000066;" vertex="1" parent="127">
                    <mxGeometry y="26" width="150" height="14" as="geometry"/>
                </mxCell>
                <mxCell id="129" value="" style="line;strokeWidth=1;fillColor=#fff2cc;align=left;verticalAlign=middle;spacingTop=-1;spacingLeft=3;spacingRight=3;rotatable=0;labelPosition=right;points=[];portConstraint=eastwest;strokeColor=#d6b656;" vertex="1" parent="127">
                    <mxGeometry y="40" width="150" height="10" as="geometry"/>
                </mxCell>
                <mxCell id="130" value="     " style="text;strokeColor=none;fillColor=none;align=left;verticalAlign=top;spacingLeft=4;spacingRight=4;overflow=hidden;rotatable=0;points=[[0,0.5],[1,0.5]];portConstraint=eastwest;fontColor=#000066;" vertex="1" parent="127">
                    <mxGeometry y="50" width="150" height="10" as="geometry"/>
                </mxCell>
                <mxCell id="136" style="edgeStyle=none;html=1;entryX=0.545;entryY=1.065;entryDx=0;entryDy=0;entryPerimeter=0;endArrow=blockThin;endFill=0;endSize=12;" edge="1" parent="1" source="131" target="111">
                    <mxGeometry relative="1" as="geometry"/>
                </mxCell>
                <mxCell id="131" value="Executive" style="swimlane;fontStyle=1;align=center;verticalAlign=top;childLayout=stackLayout;horizontal=1;startSize=26;horizontalStack=0;resizeParent=1;resizeParentMax=0;resizeLast=0;collapsible=1;marginBottom=0;swimlaneFillColor=#ffffff;strokeColor=#d6b656;strokeWidth=1;fillColor=#fff2cc;fontSize=13;" vertex="1" parent="1">
                    <mxGeometry x="940" y="480" width="150" height="60" as="geometry"/>
                </mxCell>
                <mxCell id="132" value="      " style="text;strokeColor=none;fillColor=none;align=left;verticalAlign=top;spacingLeft=4;spacingRight=4;overflow=hidden;rotatable=0;points=[[0,0.5],[1,0.5]];portConstraint=eastwest;fontColor=#000066;" vertex="1" parent="131">
                    <mxGeometry y="26" width="150" height="14" as="geometry"/>
                </mxCell>
                <mxCell id="133" value="" style="line;strokeWidth=1;fillColor=#fff2cc;align=left;verticalAlign=middle;spacingTop=-1;spacingLeft=3;spacingRight=3;rotatable=0;labelPosition=right;points=[];portConstraint=eastwest;strokeColor=#d6b656;" vertex="1" parent="131">
                    <mxGeometry y="40" width="150" height="10" as="geometry"/>
                </mxCell>
                <mxCell id="134" value="     " style="text;strokeColor=none;fillColor=none;align=left;verticalAlign=top;spacingLeft=4;spacingRight=4;overflow=hidden;rotatable=0;points=[[0,0.5],[1,0.5]];portConstraint=eastwest;fontColor=#000066;" vertex="1" parent="131">
                    <mxGeometry y="50" width="150" height="10" as="geometry"/>
                </mxCell>
                <mxCell id="137" value="PersonnelDirectory" style="swimlane;fontStyle=1;align=center;verticalAlign=top;childLayout=stackLayout;horizontal=1;startSize=26;horizontalStack=0;resizeParent=1;resizeParentMax=0;resizeLast=0;collapsible=1;marginBottom=0;swimlaneFillColor=#ffffff;strokeColor=#d6b656;strokeWidth=1;fillColor=#fff2cc;fontSize=13;" vertex="1" parent="1">
                    <mxGeometry x="290" y="270" width="210" height="210" as="geometry"/>
                </mxCell>
                <mxCell id="138" value="- per: Personnel&#10;- pf: PersonnelFactory&#10;- firstN: String&#10;- lastN: String&#10;- middleN: String&#10;- empID: int&#10;- salary: double" style="text;strokeColor=none;fillColor=none;align=left;verticalAlign=top;spacingLeft=4;spacingRight=4;overflow=hidden;rotatable=0;points=[[0,0.5],[1,0.5]];portConstraint=eastwest;fontColor=#000066;" vertex="1" parent="137">
                    <mxGeometry y="26" width="210" height="104" as="geometry"/>
                </mxCell>
                <mxCell id="139" value="" style="line;strokeWidth=1;fillColor=#fff2cc;align=left;verticalAlign=middle;spacingTop=-1;spacingLeft=3;spacingRight=3;rotatable=0;labelPosition=right;points=[];portConstraint=eastwest;strokeColor=#d6b656;" vertex="1" parent="137">
                    <mxGeometry y="130" width="210" height="10" as="geometry"/>
                </mxCell>
                <mxCell id="140" value="+ main(): void&#10;- displayAddPersonnelMenu(): void&#10;- displayAddEmployeeMenu(): void&#10;- displayAddPersonMenu(): void" style="text;strokeColor=none;fillColor=none;align=left;verticalAlign=top;spacingLeft=4;spacingRight=4;overflow=hidden;rotatable=0;points=[[0,0.5],[1,0.5]];portConstraint=eastwest;fontColor=#000066;" vertex="1" parent="137">
                    <mxGeometry y="140" width="210" height="70" as="geometry"/>
                </mxCell>
                <mxCell id="141" style="edgeStyle=none;html=1;entryX=0.494;entryY=1.031;entryDx=0;entryDy=0;strokeColor=default;endArrow=none;endFill=0;labelPosition=left;verticalLabelPosition=top;align=right;verticalAlign=bottom;startArrow=none;startFill=0;endSize=12;startSize=12;exitX=0.5;exitY=0;exitDx=0;exitDy=0;entryPerimeter=0;" edge="1" parent="1" source="144" target="140">
                    <mxGeometry relative="1" as="geometry">
                        <mxPoint x="480" y="358" as="sourcePoint"/>
                        <mxPoint x="433.3599999999999" y="390.004" as="targetPoint"/>
                    </mxGeometry>
                </mxCell>
                <mxCell id="142" value="1" style="edgeLabel;html=1;align=right;verticalAlign=bottom;resizable=0;points=[];labelPosition=left;verticalLabelPosition=top;" vertex="1" connectable="0" parent="141">
                    <mxGeometry x="-0.4741" y="2" relative="1" as="geometry">
                        <mxPoint x="28" y="19" as="offset"/>
                    </mxGeometry>
                </mxCell>
                <mxCell id="143" value="1" style="edgeLabel;html=1;align=right;verticalAlign=top;resizable=0;points=[];labelPosition=left;verticalLabelPosition=bottom;" vertex="1" connectable="0" parent="141">
                    <mxGeometry x="0.2074" y="2" relative="1" as="geometry">
                        <mxPoint x="-4" y="-34" as="offset"/>
                    </mxGeometry>
                </mxCell>
                <mxCell id="150" value="creates" style="edgeStyle=none;html=1;entryX=-0.018;entryY=-0.014;entryDx=0;entryDy=0;entryPerimeter=0;endArrow=blockThin;endFill=0;endSize=12;dashed=1;" edge="1" parent="1" source="144" target="90">
                    <mxGeometry relative="1" as="geometry"/>
                </mxCell>
                <mxCell id="151" style="edgeStyle=none;html=1;entryX=0;entryY=0.5;entryDx=0;entryDy=0;dashed=1;endArrow=blockThin;endFill=0;endSize=12;" edge="1" parent="1" source="144" target="109">
                    <mxGeometry relative="1" as="geometry"/>
                </mxCell>
                <mxCell id="152" value="creates" style="edgeLabel;html=1;align=center;verticalAlign=middle;resizable=0;points=[];" vertex="1" connectable="0" parent="151">
                    <mxGeometry x="0.0821" y="-5" relative="1" as="geometry">
                        <mxPoint as="offset"/>
                    </mxGeometry>
                </mxCell>
                <mxCell id="144" value="PersonnelFactory" style="swimlane;fontStyle=1;align=center;verticalAlign=top;childLayout=stackLayout;horizontal=1;startSize=26;horizontalStack=0;resizeParent=1;resizeParentMax=0;resizeLast=0;collapsible=1;marginBottom=0;swimlaneFillColor=#ffffff;strokeColor=#d6b656;strokeWidth=1;fillColor=#fff2cc;fontSize=13;" vertex="1" parent="1">
                    <mxGeometry x="200" y="560" width="550" height="80" as="geometry"/>
                </mxCell>
                <mxCell id="146" value="" style="line;strokeWidth=1;fillColor=#fff2cc;align=left;verticalAlign=middle;spacingTop=-1;spacingLeft=3;spacingRight=3;rotatable=0;labelPosition=right;points=[];portConstraint=eastwest;strokeColor=#d6b656;" vertex="1" parent="144">
                    <mxGeometry y="26" width="550" height="10" as="geometry"/>
                </mxCell>
                <mxCell id="147" value="+ createPersonnel(type: String, last: String, first: String, middle: String): Person&#10;+ createPersonnel(type: String, last: String, first: String, middle: String, id: int, sal: double): Employee " style="text;strokeColor=none;fillColor=none;align=left;verticalAlign=top;spacingLeft=4;spacingRight=4;overflow=hidden;rotatable=0;points=[[0,0.5],[1,0.5]];portConstraint=eastwest;fontColor=#000066;" vertex="1" parent="144">
                    <mxGeometry y="36" width="550" height="44" as="geometry"/>
                </mxCell>
            </root>
        </mxGraphModel>
    </diagram>
</mxfile>
